HIERARCHY
ROOT Hips
{
	OFFSET 0.000000 0.000000 0.000000
	CHANNELS 6 Xposition Yposition Zposition Zrotation Yrotation Xrotation 
	JOINT LHipJoint
	{
		OFFSET 0.000000 0.000000 0.000000
		CHANNELS 3 Zrotation Yrotation Xrotation
		JOINT LeftUpLeg
		{
			OFFSET 1.363060 -1.794630 0.839290
			CHANNELS 3 Zrotation Yrotation Xrotation
			JOINT LeftLeg
			{
				OFFSET 2.448110 -6.726130 0.000000
				CHANNELS 3 Zrotation Yrotation Xrotation
				JOINT LeftFoot
				{
					OFFSET 2.562200 -7.039590 0.000000
					CHANNELS 3 Zrotation Yrotation Xrotation
					JOINT LeftToeBase
					{
						OFFSET 0.157640 -0.433110 2.322550
						CHANNELS 3 Zrotation Yrotation Xrotation
						End Site
						{
							OFFSET 0.000000 0.000000 0.000000
						}
					}
				}
			}
		}
	}
	JOINT RHipJoint
	{
		OFFSET 0.000000 0.000000 0.000000
		CHANNELS 3 Zrotation Yrotation Xrotation
		JOINT RightUpLeg
		{
			OFFSET -1.305520 -1.794630 0.839290
			CHANNELS 3 Zrotation Yrotation Xrotation
			JOINT RightLeg
			{
				OFFSET -2.542530 -6.985550 0.000000
				CHANNELS 3 Zrotation Yrotation Xrotation
				JOINT RightFoot
				{
					OFFSET -2.568260 -7.056230 0.000000
					CHANNELS 3 Zrotation Yrotation Xrotation
					JOINT RightToeBase
					{
						OFFSET -0.164730 -0.452590 2.363150
						CHANNELS 3 Zrotation Yrotation Xrotation
						End Site
						{
							OFFSET 0.000000 0.000000 0.000000
						}
					}
				}
			}
		}
	}
	JOINT LowerBack
	{
		OFFSET 0.000000 0.000000 0.000000
		CHANNELS 3 Zrotation Yrotation Xrotation
		JOINT Spine
		{
			OFFSET 0.028270 2.035590 -0.193380
			CHANNELS 3 Zrotation Yrotation Xrotation
			JOINT Spine1
			{
				OFFSET 0.056720 2.048850 -0.042750
				CHANNELS 3 Zrotation Yrotation Xrotation
				JOINT Neck
				{
					OFFSET 0.000000 0.000000 0.000000
					CHANNELS 3 Zrotation Yrotation Xrotation
					JOINT Neck1
					{
						OFFSET -0.054170 1.746240 0.172020
						CHANNELS 3 Zrotation Yrotation Xrotation
						JOINT Head
						{
							OFFSET 0.104070 1.761360 -0.123970
							CHANNELS 3 Zrotation Yrotation Xrotation
							End Site
							{
								OFFSET 0.000000 0.000000 0.000000
							}
						}
					}
				}
				JOINT LeftShoulder
				{
					OFFSET 0.000000 0.000000 0.000000
					CHANNELS 3 Zrotation Yrotation Xrotation
					JOINT LeftArm
					{
						OFFSET 3.362410 1.200890 -0.311210
						CHANNELS 3 Zrotation Yrotation Xrotation
						JOINT LeftForeArm
						{
							OFFSET 4.983000 -0.000000 -0.000000
							CHANNELS 3 Zrotation Yrotation Xrotation
							JOINT LeftHand
							{
								OFFSET 3.483560 -0.000000 -0.000000
								CHANNELS 3 Zrotation Yrotation Xrotation
								JOINT LeftFingerBase
								{
									OFFSET 0.000000 0.000000 0.000000
									CHANNELS 3 Zrotation Yrotation Xrotation
									JOINT LeftHandIndex1
									{
										OFFSET 0.715260 -0.000000 -0.000000
										CHANNELS 3 Zrotation Yrotation Xrotation
										End Site
										{
											OFFSET 0.000000 0.000000 0.000000
										}
									}
								}
								JOINT LThumb
								{
									OFFSET 0.000000 0.000000 0.000000
									CHANNELS 3 Zrotation Yrotation Xrotation
									End Site
									{
										OFFSET 0.000000 0.000000 0.000000
									}
								}
							}
						}
					}
				}
				JOINT RightShoulder
				{
					OFFSET 0.000000 0.000000 0.000000
					CHANNELS 3 Zrotation Yrotation Xrotation
					JOINT RightArm
					{
						OFFSET -3.136600 1.374050 -0.404650
						CHANNELS 3 Zrotation Yrotation Xrotation
						JOINT RightForeArm
						{
							OFFSET -5.241900 -0.000000 -0.000000
							CHANNELS 3 Zrotation Yrotation Xrotation
							JOINT RightHand
							{
								OFFSET -3.444170 -0.000000 -0.000000
								CHANNELS 3 Zrotation Yrotation Xrotation
								JOINT RightFingerBase
								{
									OFFSET 0.000000 0.000000 0.000000
									CHANNELS 3 Zrotation Yrotation Xrotation
									JOINT RightHandIndex1
									{
										OFFSET -0.622530 -0.000000 -0.000000
										CHANNELS 3 Zrotation Yrotation Xrotation
										End Site
										{
											OFFSET 0.000000 0.000000 0.000000
										}
									}
								}
								JOINT RThumb
								{
									OFFSET 0.000000 0.000000 0.000000
									CHANNELS 3 Zrotation Yrotation Xrotation
									End Site
									{
										OFFSET 0.000000 0.000000 0.000000
									}
								}
							}
						}
					}
				}
			}
		}
	}
}
MOTION
Frames: 8
Frame Time: 0.008333
5.104746 16.632799 -7.209355 -177.374463 39.806424 -173.212084 -8.376524 2.022780 -0.523682 -22.992350 17.341474 -37.217383 -2.737401 1.174478 33.428939 2.628110 11.435941 -17.382880 177.858700 0.000000 -4.283100 12.618393 -3.544916 -1.297988 -5.604090 -18.714705 -7.496682 -0.626503 -3.156760 49.789743 -1.069490 6.419850 27.177236 4.174500 -0.000001 -86.846200 -6.901199 1.404001 0.306218 -1.937088 1.767515 -3.009041 -4.610094 1.675009 -0.198857 4.637106 -3.797983 -8.849064 -1.723931 -0.120215 -0.339957 0.000000 0.000000 0.000000 -5.775429 19.057030 2.055679 -55.335409 28.810755 -16.736997 -5.070767 -5.646169 -0.008006 4.325238 3.583784 0.142776 -0.180519 -0.049467 0.000000 0.000000 0.000000 0.000000 0.000000 0.000000 0.000000 3.233465 2.684618 0.767928 16.212485 30.833232 -9.145209 -0.219268 58.173694 -0.026460 -3.125568 5.274881 -0.154868 -0.025993 -0.444650 0.000000 0.000000 0.000000 0.000000 0.000000 0.000000 0.000000 
5.146940 16.568921 -7.311842 -177.717257 39.394782 -173.673653 -8.358349 2.052414 -0.645964 -23.205381 17.166059 -37.215270 -2.683452 1.329315 35.296405 2.657933 11.372510 -18.421033 177.606899 0.000000 -4.104500 12.721608 -3.344610 -1.478667 -6.211248 -19.051329 -8.482485 -0.772346 -3.312227 52.649495 -1.266928 4.344280 27.026749 3.104400 -0.000001 -83.303400 -7.069601 1.233026 0.672957 -1.969557 1.608398 -2.976413 -4.676219 1.520168 -0.351390 4.828452 -3.633969 -8.782891 -1.818830 -0.128165 -0.329032 0.000000 0.000000 0.000000 -6.216193 18.403106 2.153141 -56.058208 28.203492 -16.260503 -5.123779 -5.074255 -0.010318 3.344513 4.127763 0.128027 -0.174768 -0.048228 0.000000 0.000000 0.000000 0.000000 0.000000 0.000000 0.000000 3.675452 2.853933 0.751258 17.470330 30.891446 -9.147252 -0.187132 59.161447 -0.027359 -3.204504 5.389514 -0.162153 -0.026202 -0.449213 0.000000 0.000000 0.000000 0.000000 0.000000 0.000000 0.000000 
5.184660 16.504202 -7.411943 -178.067743 38.961860 -174.171412 -8.349544 2.068405 -0.772004 -23.384172 16.901592 -37.049782 -2.623413 1.468656 37.056113 2.718892 11.458320 -19.561174 177.307600 0.000000 -3.871100 12.811189 -3.129049 -1.689192 -6.824716 -19.368886 -9.414245 -0.922575 -3.484742 55.460661 -1.473553 1.888289 26.426278 1.812000 -0.000000 -79.641501 -7.210605 1.062642 1.093403 -1.996175 1.448719 -2.934006 -4.744672 1.365811 -0.504781 5.010351 -3.454329 -8.704692 -1.923189 -0.136902 -0.315998 0.000000 0.000000 0.000000 -6.690708 17.712235 2.259824 -56.769951 27.405827 -15.651892 -5.162982 -4.444260 -0.012213 2.459351 4.600828 0.106283 -0.168951 -0.046087 0.000000 0.000000 0.000000 0.000000 0.000000 0.000000 0.000000 4.144327 3.041671 0.744212 18.755449 30.889269 -9.090722 -0.153692 60.176111 -0.028478 -3.314456 5.540585 -0.172236 -0.025749 -0.454039 0.000000 0.000000 0.000000 0.000000 0.000000 0.000000 0.000000 
5.218374 16.439644 -7.509854 -178.427231 38.511640 -174.704807 -8.348369 2.074521 -0.904427 -23.544992 16.580474 -36.726767 -2.560570 1.593007 38.681843 2.805467 11.679404 -20.750958 176.966900 0.000000 -3.596600 12.889637 -2.902982 -1.919913 -7.444063 -19.646810 -10.289266 -1.078172 -3.672898 58.186710 -1.687616 -0.822475 25.372860 0.411800 0.000000 -75.908300 -7.330577 0.896256 1.558811 -2.018874 1.292112 -2.882787 -4.815525 1.215454 -0.654775 5.187068 -3.256519 -8.611576 -2.036081 -0.146368 -0.300100 0.000000 0.000000 0.000000 -7.174772 16.997715 2.376520 -57.465811 26.391443 -14.929629 -5.182348 -3.739190 -0.013595 1.724180 4.993929 0.082647 -0.162828 -0.042807 0.000000 0.000000 0.000000 0.000000 0.000000 0.000000 0.000000 4.640459 3.249617 0.744490 20.081925 30.809722 -8.967150 -0.119524 61.209136 -0.029899 -3.467741 5.732635 -0.186317 -0.024460 -0.459087 0.000000 0.000000 0.000000 0.000000 0.000000 0.000000 0.000000 
5.248683 16.376361 -7.605780 -178.795303 38.049410 -175.267882 -8.352928 2.074324 -1.044600 -23.701683 16.232214 -36.262934 -2.497855 1.703538 40.154933 2.910654 12.011427 -21.939506 176.593900 0.000000 -3.301300 12.959204 -2.671767 -2.159297 -8.062081 -19.861063 -11.112828 -1.238758 -3.873747 60.791725 -1.905031 -3.632137 23.894687 -0.963200 -0.000001 -72.129801 -7.435375 0.736939 2.056889 -2.039822 1.141829 -2.823124 -4.890102 1.072316 -0.792508 5.368225 -3.056535 -8.506737 -2.157212 -0.156472 -0.282245 0.000000 0.000000 0.000000 -7.641991 16.284615 2.501948 -58.141683 25.124150 -14.113430 -5.176055 -2.945215 -0.014387 1.185646 5.302375 0.062121 -0.156036 -0.038196 0.000000 0.000000 0.000000 0.000000 0.000000 0.000000 0.000000 5.178530 3.460194 0.749345 21.439372 30.665043 -8.757880 -0.085875 62.237159 -0.031783 -3.689881 5.969250 -0.206196 -0.021969 -0.464274 0.000000 0.000000 0.000000 0.000000 0.000000 0.000000 0.000000 
5.276226 16.315449 -7.699921 -179.171462 37.579533 -175.852410 -8.361207 2.071058 -1.192581 -23.866791 15.881726 -35.679917 -2.437729 1.801445 41.463075 3.026524 12.421874 -23.081503 176.201500 0.000000 -3.008800 13.022030 -2.441335 -2.394847 -8.670022 -19.987822 -11.896260 -1.402688 -4.083337 63.244701 -2.119229 -6.375746 22.050755 -2.186200 -0.000000 -68.326300 -7.530084 0.589056 2.572348 -2.060300 1.002453 -2.758166 -4.966819 0.940596 -0.917875 5.550092 -2.840298 -8.384012 -2.283511 -0.167034 -0.260598 0.000000 0.000000 0.000000 -8.072586 15.578181 2.635984 -58.796374 23.603556 -13.226883 -5.140938 -2.074251 -0.014575 0.871488 5.528535 0.049108 -0.148233 -0.032094 0.000000 0.000000 0.000000 0.000000 0.000000 0.000000 0.000000 5.736143 3.686386 0.755297 22.878077 30.412677 -8.466255 -0.052276 63.256279 -0.034056 -3.971802 6.250394 -0.232171 -0.018404 -0.469435 -0.000000 0.000000 0.000000 0.000000 0.000000 0.000000 0.000000 
5.301609 16.257969 -7.792608 -179.551031 37.107699 -176.443059 -8.371716 2.067254 -1.347283 -24.046290 15.549030 -35.006463 -2.382357 1.888199 42.601736 3.144945 12.873033 -24.141137 175.805201 -0.000000 -2.740500 13.079298 -2.217447 -2.614151 -9.250570 -20.003749 -12.657172 -1.567303 -4.296272 65.518731 -2.321547 -8.902824 19.926617 -3.159200 0.000000 -64.524700 -7.617361 0.455146 3.088701 -2.081926 0.876605 -2.688134 -5.047908 0.822872 -1.019366 5.743482 -2.640793 -8.253318 -2.414595 -0.177872 -0.237797 0.000000 0.000000 0.000000 -8.446367 14.911402 2.773399 -59.426330 21.801333 -12.287956 -5.074113 -1.138681 -0.014179 0.800577 5.672638 0.046310 -0.139042 -0.024476 0.000000 0.000000 0.000000 0.000000 0.000000 0.000000 0.000000 6.333679 3.892163 0.759386 24.373192 30.091886 -8.069063 -0.019986 64.225278 -0.036846 -4.337448 6.575496 -0.266442 -0.013420 -0.474346 0.000000 0.000000 0.000000 0.000000 0.000000 0.000000 0.000000 
5.325485 16.204827 -7.884116 -179.930029 36.637110 -177.024837 -8.383266 2.064687 -1.506634 -24.243622 15.248665 -34.271728 -2.333412 1.964865 43.572398 3.258298 13.325958 -25.093495 175.422100 -0.000000 -2.512000 13.131683 -2.005516 -2.805882 -9.787292 -19.891256 -13.415360 -1.729046 -4.506789 67.594037 -2.502259 -11.093348 17.625242 -3.828000 -0.000001 -60.800900 -7.697735 0.339007 3.588734 -2.104867 0.768180 -2.616864 -5.132051 0.722526 -1.099126 5.941116 -2.444842 -8.110292 -2.546763 -0.188742 -0.212353 0.000000 0.000000 0.000000 -8.754093 14.287182 2.911339 -60.031331 19.739969 -11.318596 -4.976668 -0.183079 -0.013304 0.970508 5.737831 0.054829 -0.128275 -0.015393 0.000000 0.000000 0.000000 0.000000 0.000000 0.000000 0.000000 6.942072 4.088793 0.758185 25.977996 29.660740 -7.576132 0.011850 65.133070 -0.039934 -4.760900 6.939381 -0.308309 -0.007393 -0.478686 -0.000000 0.000000 0.000000 0.000000 0.000000 0.000000 0.000000 
